<svg width="56" height="88" viewBox="0 0 56 88" fill="none" xmlns="http://www.w3.org/2000/svg">
<path d="M55.4152 62.9935C55.4334 66.7317 54.9061 70.0809 53.8407 73.0336C52.7716 75.99 51.1097 78.5246 48.8552 80.641C46.597 82.7574 43.7351 84.3792 40.2623 85.4992C36.7896 86.6192 32.655 87.1902 27.8622 87.212C23.0694 87.2302 18.9166 86.6956 15.4111 85.6047C11.902 84.5138 9.02561 82.9174 6.77831 80.8192C4.53101 78.7246 2.85826 76.2009 1.76734 73.2554C0.676421 70.31 0.120051 66.9681 0.105506 63.2299L4.98145e-05 49.9861C-0.007223 48.4043 0.781877 47.6115 2.36008 47.6042L11.9056 47.5642C12.5093 48.1606 13.1711 48.7061 13.8802 49.2043C15.8693 50.597 18.2984 51.5279 21.1676 51.997C24.0331 52.4625 27.3422 52.4261 31.0913 51.8807C34.8441 51.3352 38.015 50.4334 40.6114 49.1715C41.6878 48.6479 42.6733 48.0661 43.5678 47.4297L52.9316 47.3897C54.5134 47.3824 55.3061 48.1679 55.3134 49.7497L55.4152 62.9935Z" fill="#0F9BFF"/>
<path d="M43.5694 47.4307C42.6748 48.067 41.6894 48.6489 40.613 49.1725C38.0166 50.4343 34.8457 51.3362 31.0929 51.8816C27.3438 52.4271 24.0346 52.4634 21.1692 51.998C18.3 51.5289 15.8709 50.598 13.8818 49.2052C13.1727 48.707 12.5109 48.1616 11.9072 47.5652L43.5694 47.4307Z" fill="#144264"/>
<path d="M49.8609 37.9165C49.3518 40.3457 48.33 42.513 46.7991 44.4221C45.9009 45.5348 44.8245 46.5385 43.5663 47.4294L11.9041 47.5639C10.8059 46.4839 9.87863 45.2403 9.12226 43.8366C7.94043 41.6475 7.13678 39.0947 6.71496 36.1674L5.16949 25.8109C4.9913 24.5746 5.51858 23.8655 6.75496 23.6873L12.2641 22.8873C13.1223 23.5236 14.1005 24.0873 15.1914 24.5782C17.286 25.52 19.8206 26.1637 22.7988 26.5128C25.7734 26.8582 28.3807 26.8146 30.6207 26.3819C32.8607 25.9455 34.7589 25.1564 36.3189 24.0146C37.8753 22.8691 39.0972 21.4218 39.9844 19.6691C40.1263 19.3854 40.2608 19.0981 40.3808 18.8L46.3227 17.9381C47.5591 17.7563 48.2645 18.2872 48.4464 19.5236L49.9882 29.8801C50.4136 32.8037 50.37 35.4838 49.8609 37.9165Z" fill="#0F9BFF"/>
<path d="M40.3813 18.8008C40.2613 19.099 40.1268 19.3862 39.985 19.6699C39.0977 21.4226 37.8759 22.8699 36.3195 24.0154C34.7595 25.1572 32.8613 25.9463 30.6212 26.3827C28.3812 26.8154 25.7739 26.8591 22.7993 26.5136C19.8211 26.1645 17.2865 25.5209 15.192 24.579C14.101 24.0881 13.1228 23.5245 12.2646 22.8881L40.3813 18.8008Z" fill="#144264"/>
<path d="M42.6504 5.33128L41.7194 13.5568C41.4904 15.5059 41.0467 17.2551 40.3812 18.8005L12.2646 22.8879C11.4791 22.306 10.7882 21.6624 10.1954 20.9606C8.95907 19.4914 8.11178 17.8005 7.6536 15.8914C7.19905 13.9787 7.10813 11.8659 7.37723 9.54224L8.30815 1.31669C8.42451 0.334862 8.97361 -0.0978699 9.9518 0.0184951L41.3485 3.68763C42.3304 3.80036 42.7631 4.34945 42.6504 5.33128Z" fill="#0F9BFF"/>
</svg>
