<?xml version="1.0" standalone="no"?>
<!DOCTYPE svg PUBLIC "-//W3C//DTD SVG 1.1//EN" "http://www.w3.org/Graphics/SVG/1.1/DTD/svg11.dtd">
<svg xmlns="http://www.w3.org/2000/svg" id="Layer_1" data-name="Layer 1" viewBox="0 0 793.7 175.75" width="793.7000122070312" height="175.75">
  <defs>
    <style>
      .cls-1 {
        fill: #e64e1a;
      }

      .cls-2 {
        fill: #e61d03;
      }
    </style>
  </defs>
  <path class="cls-1" d="M133.37,130.89c-.33,6.19-2.05,11.7-5.15,16.53-3.11,4.84-7.41,8.81-12.89,11.94-5.48,3.12-12.09,5.4-19.83,6.82-7.73,1.42-16.33,1.88-25.8,1.37-40.77-2.18-62.06-20.66-63.87-55.44-.18-3.81,1.69-5.61,5.6-5.4l42.79,2.29c1.64.09,2.98.57,4.01,1.45,1.02.88,1.99,2.35,2.89,4.42,1.47,3.25,4.23,4.98,8.27,5.19,4.42.24,6.71-1.09,6.86-4,.12-2.27-1.49-4.03-4.84-5.29-3.35-1.25-7.56-2.43-12.63-3.52-5.07-1.09-10.54-2.37-16.41-3.82-5.88-1.46-11.3-3.58-16.28-6.38-4.97-2.8-9.05-6.53-12.21-11.19-3.17-4.66-4.56-10.72-4.16-18.17.34-6.31,2.03-11.85,5.07-16.63,3.04-4.77,7.27-8.72,12.69-11.85s11.9-5.41,19.45-6.84c7.54-1.43,15.99-1.9,25.33-1.4,21.08,1.13,36.69,6.3,46.83,15.51,2.7,2.46,5.07,5.2,7.1,8.24v36.86l-39.21-2.1c-1.77-.09-3.14-.57-4.1-1.45-.97-.87-1.9-2.35-2.8-4.42-1.35-3.24-3.73-4.95-7.13-5.13-3.92-.21-5.95,1.14-6.11,4.04-.12,2.27,1.5,4.04,4.85,5.29,3.35,1.26,7.56,2.43,12.62,3.53,5.07,1.09,10.54,2.36,16.42,3.82,5.87,1.45,11.29,3.58,16.27,6.37,4.98,2.8,9.05,6.53,12.22,11.2,3.17,4.66,4.55,10.72,4.15,18.16Z"/>
  <path class="cls-2" d="M135.37,86.38c.18,3.8-1.69,5.6-5.6,5.39l-3.58-.19v-36.86c5.6,8.35,8.66,18.91,9.18,31.66Z"/>
  <path class="cls-1" d="M232.38,26.15v10.48c-3.44.61-5.29,2.71-5.54,6.27l-4.66,62.88h-9.33c-4.68,0-7.02,2.34-7.02,7.02v34.7c0,3.79-1.89,5.69-5.69,5.69h-41.71c-3.79,0-5.69-1.9-5.69-5.69v-34.7c0-4.68-2.34-7.02-7.01-7.02h-13.85c-3.79,0-5.69-1.89-5.69-5.69v-8.51l3.58.19c3.91.21,5.78-1.59,5.6-5.39-.52-12.75-3.58-23.31-9.18-31.66v-28.57c0-3.8,1.9-5.69,5.69-5.69h94.81c3.79,0,5.69,1.89,5.69,5.69Z"/>
  <path class="cls-2" d="M232.38,36.63v63.46c0,3.8-1.9,5.69-5.69,5.69h-4.51l4.66-62.88c.25-3.56,2.1-5.66,5.54-6.27Z"/>
  <path class="cls-1" d="M352.95,148.82l-7.22-20.38c-1.87-1.36-3.64-2.85-5.32-4.46-5.88-5.62-10.46-12.73-13.75-21.33-3.28-8.59-4.93-18.77-4.93-30.53,0-3.55.15-6.95.43-10.2h0s-10.75-30.35-10.75-30.35c-1.24-3.53-3.74-5.05-7.5-4.55l-71.04,9.53c-.17.02-.33.05-.49.08v63.46c0,3.8-1.9,5.69-5.69,5.69h-4.51l-4.54,61.18c-.27,3.73,1.48,5.34,5.24,4.84l49.05-6.57c3.88-.52,5.63-2.67,5.26-6.45l-1.08-18.03c-.26-3.79,1.5-5.94,5.26-6.44l1.5-.2c3.88-.52,6.14,1.09,6.77,4.83l3.71,17.68c.75,3.72,3.01,5.33,6.77,4.83l49.05-6.58c3.76-.5,5.02-2.52,3.78-6.05ZM279.6,115.41c-3.26.44-4.98-.98-5.17-4.28l-1.36-21.62c-.01-1.92.87-2.99,2.62-3.23,1.88-.25,3.01.56,3.39,2.42l4.37,21.22c.69,3.23-.59,5.06-3.85,5.49Z"/>
  <path class="cls-2" d="M345.73,128.44c-1.87-1.36-3.64-2.85-5.32-4.46-5.88-5.62-10.46-12.73-13.75-21.33-3.28-8.59-4.93-18.77-4.93-30.53,0-3.55.15-6.95.43-10.2l23.57,66.52Z"/>
  <path class="cls-1" d="M447.43,55.04h0s-1.83,11.73-1.83,11.73h0c-.74.28-1.64.42-2.7.42h-42.86c-3.28,0-5.56-1.83-6.82-5.5-1.39-4.42-4.11-6.63-8.15-6.63-2.91,0-5.19,1.51-6.83,4.55-1.65,3.03-2.47,7.14-2.47,12.32s1.11,9.52,3.32,12.61c2.21,3.1,5.22,4.65,9.01,4.65,5.43,0,9.04-2.34,10.81-7.02,1.39-3.66,3.72-5.5,7.01-5.5h38.14l-7.34,47.13c-.94.93-1.91,1.81-2.92,2.65-5.69,4.74-12.36,8.24-20.01,10.52-7.65,2.28-16.21,3.41-25.69,3.41s-18.49-1.32-26.64-3.98c-5.82-1.89-11.06-4.54-15.73-7.96l-23.57-66.52h0c.67-7.55,2.1-14.32,4.31-20.33,3.16-8.59,7.56-15.67,13.18-21.23,5.63-5.56,12.33-9.7,20.1-12.42,7.78-2.72,16.28-4.08,25.5-4.08s17.13,1.14,24.47,3.41c7.32,2.28,13.71,5.79,19.15,10.53,5.43,4.74,9.79,10.74,13.08,18.01,2.54,5.63,4.37,12.04,5.48,19.23Z"/>
  <path class="cls-2" d="M445.6,66.77l1.83-11.72c.32,2.08.58,4.24.78,6.45.28,2.77-.6,4.53-2.61,5.27Z"/>
  <path class="cls-2" d="M454.08,82.36c-.88,9.99-3.06,18.65-6.54,25.98-2.86,6.03-6.47,11.19-10.82,15.46l7.34-47.13h4.72c3.91,0,5.68,1.9,5.3,5.69Z"/>
  <path class="cls-1" d="M545.72,83.11c-1.76,3.06-1.08,5.72,2.02,7.99,2.74,2.1,5.03,4.63,6.87,7.6,1.84,2.97,3.15,6.92,3.92,11.83.77,4.92,1.03,11.01.8,18.26-.24,7.26-1.11,16.14-2.61,26.65-.59,3.75-2.82,5.32-6.69,4.72l-48.71-7.58c-3.62-.57-4.95-2.69-4-6.38,2.17-7.34,3.55-14.39,4.16-21.14.6-6.75.17-12.03-1.28-15.83-.36-.96-.78-1.76-1.25-2.41-.48-.65-1.34-1.07-2.59-1.26-2.12-.33-3.44,1.13-3.94,4.37l-5.21,34.69c-.59,3.75-2.75,5.33-6.5,4.75l-41.22-6.42c-3.74-.58-5.33-2.75-4.74-6.5l1.97-12.65c4.35-4.27,7.96-9.43,10.82-15.46,3.48-7.33,5.66-15.99,6.54-25.98.38-3.79-1.39-5.69-5.3-5.69h-4.72l1.54-9.89h0c2.01-.75,2.89-2.51,2.61-5.28-.2-2.21-.46-4.37-.78-6.45h0s5.99-38.5,5.99-38.5c.58-3.75,2.75-5.33,6.49-4.75l41.22,6.42c3.75.58,5.33,2.75,4.75,6.49l-4.82,30.92c-.09.62-.05,1.37.14,2.23.18.86.77,1.36,1.78,1.52,1.37.21,2.34-.05,2.9-.8.56-.74.96-1.41,1.18-2.02l10.84-30.17c1.31-3.5,3.84-4.96,7.59-4.38l37.23,5.8v25.63l-17,29.67Z"/>
  <path class="cls-2" d="M573.38,34.84l-10.66,18.6v-25.63l7.92,1.23c3.62.56,4.54,2.5,2.74,5.8Z"/>
  <path class="cls-1" d="M656.77,37.26l3.44,24.12c-.25.02-.52.03-.79.03h-38.87c-3.16,0-4.74,1.58-4.74,4.74s1.58,4.74,4.74,4.74h33.18c3.79,0,5.69,1.9,5.69,5.69v22.75c0,3.8-1.9,5.69-5.69,5.69h-33.18c-3.16,0-4.74,1.58-4.74,4.74s1.58,4.74,4.74,4.74h38.87c3.79,0,5.69,1.9,5.69,5.69v28.44c0,3.8-1.9,5.69-5.69,5.69h-91.02c-3.79,0-5.68-1.89-5.68-5.69V53.44l10.66-18.6c1.8-3.3.88-5.24-2.74-5.8l-7.92-1.23v-.53c0-3.79,1.89-5.69,5.68-5.69h91.02c3.79,0,5.69,1.9,5.69,5.69v3.05l-3.51.5c-3.76.53-5.37,2.68-4.83,6.43Z"/>
  <path class="cls-1" d="M786.59,80.05c-1.62-11.38-4.34-21.02-8.14-28.91-3.8-7.88-8.59-14.16-14.37-18.83-5.77-4.66-12.34-7.78-19.71-9.35-7.38-1.56-15.51-1.72-24.39-.45l-54.87,7.82v25.39c0,3.53-1.64,5.41-4.9,5.66l13.67,96.02c.54,3.75,2.68,5.36,6.44,4.83l58.38-8.32c8.88-1.26,16.64-3.68,23.29-7.24,6.64-3.56,12.09-8.36,16.33-14.4,4.25-6.03,7.1-13.39,8.54-22.09,1.44-8.69,1.35-18.74-.27-30.13ZM726.38,107.78l-1.13.17c-3.13.44-4.91-.9-5.36-4.03l-4.01-28.16c-.45-3.12.89-4.91,4.02-5.36l1.13-.16c6.26-.89,10.26,4.8,12.01,17.06,1.82,12.77-.4,19.59-6.66,20.48Z"/>
  <path class="cls-2" d="M665.11,30.33v25.39c0,3.53-1.64,5.41-4.9,5.66l-3.44-24.12c-.54-3.75,1.07-5.9,4.83-6.43l3.51-.5Z"/>
</svg>